# xmcd CD database file
#
# Track frame offsets:
#	150
#	10925
#	23655
#	35672
#	53830
#	66102
#	78070
#	82675
#	90235
#	102562
#	113465
#	126332
#	131430
#	146002
#	161982
#	170267
#	178580
#	185915
#	196782
#	205302
#	214712
#	223557
#	240450
#	246520
#	258927
#	273887
#	287717
#	295127
#	313750
#
# Disc length: 4326 seconds
#
# Revision: 0
# Processed by: cddbd v1.5.2PL0 Copyright (c) Steve Scherf et al.
# Submitted via: CDex 1.70beta2
#
DISCID=9c10e41d
DTITLE=Venuti, Joe - Pretty Trix
DYEAR=1934
DGENRE=Jazz
TTITLE0=Monday Date, A
TTITLE1=I'm Confessin'
TTITLE2=Way Down Yonder in New Orleans
TTITLE3=Star Dust
TTITLE4=Avalon
TTITLE5=Doin' Things
TTITLE6=Pretty Trix
TTITLE7=Wild Cat
TTITLE8=Satan's Holiday
TTITLE9=Nobody's Sweetheart
TTITLE10=When It's Sleepy Time Down South
TTITLE11=I Got Rhythm
TTITLE12=Basin Street Blues
TTITLE13=Rockin' Chair - Georgia on My Mind
TTITLE14=Running Ragged
TTITLE15=Dark Eyes
TTITLE16=Fiddlestix
TTITLE17=Guitar Improvisation
TTITLE18=Wild Dog, The
TTITLE19=Pardon Me, Pretty Baby - Sweet Sue, Just You
TTITLE20=China Boy
TTITLE21=Rose Room
TTITLE22=Corrina Corrine
TTITLE23=Wild Party
TTITLE24=Hocus Pocus
TTITLE25=Smoke Rings
TTITLE26=Bugle Call Rag
TTITLE27=Tea for Two
TTITLE28=After You've Gone
EXTD=YEAR: 1934
EXTT0=
EXTT1=
EXTT2=
EXTT3=
EXTT4=
EXTT5=
EXTT6=
EXTT7=
EXTT8=
EXTT9=
EXTT10=
EXTT11=
EXTT12=
EXTT13=
EXTT14=
EXTT15=
EXTT16=
EXTT17=
EXTT18=
EXTT19=
EXTT20=
EXTT21=
EXTT22=
EXTT23=
EXTT24=
EXTT25=
EXTT26=
EXTT27=
EXTT28=
PLAYORDER=
